<svg id="Layer_1" data-name="Layer 1" xmlns="http://www.w3.org/2000/svg" viewBox="0 0 133.937 38"><defs><style>.cls-1{fill:#12b664;}.cls-2{fill:#fff;}</style></defs><title>logo</title><ellipse class="cls-1" cx="19.009" cy="19" rx="19.009" ry="19"/><path class="cls-2" d="M40.353,24.829a1.434,1.434,0,0,0-.816-1.287V14.665a0.273,0.273,0,0,0,0-.512L21.208,7.694a1.085,1.085,0,0,0-.726,0L2.162,14.155a0.273,0.273,0,0,0-.007.512l18.3,7.118a1.1,1.1,0,0,0,.791,0l17.032-6.63v8.386a1.434,1.434,0,0,0,.065,2.616,11.924,11.924,0,0,0-.88,3.719,1.447,1.447,0,0,0,2.893.076q0-.038,0-0.076a11.958,11.958,0,0,0-.88-3.719A1.444,1.444,0,0,0,40.353,24.829Z"/><path class="cls-2" d="M7.884,18.251v4.84c0,3.812,5.741,6.916,12.959,7.11,7.218-.194,12.958-3.294,12.958-7.11v-4.84l-12.568,4.89a1.091,1.091,0,0,1-.791,0Z"/><path class="cls-2" d="M68.467,25.167H57.651l-2.063,4.992H50.063l10.383-23.3h5.325l10.417,23.3H70.53Zm-1.7-4.094-3.694-8.919-3.694,8.919h7.388Z"/><path class="cls-2" d="M85.724,12.653a9.324,9.324,0,0,1,3.644-.666V16.78Q88.5,16.714,88.2,16.714a4.759,4.759,0,0,0-3.5,1.248,5.042,5.042,0,0,0-1.265,3.744v8.453H78.252V12.254h4.959v2.363A5.768,5.768,0,0,1,85.724,12.653Z"/><path class="cls-2" d="M110.768,12.254v14.91q0,4.925-2.562,7.321t-7.488,2.4a18.756,18.756,0,0,1-4.926-.632,10.774,10.774,0,0,1-3.86-1.831L94,30.694a8.488,8.488,0,0,0,2.862,1.481,11.378,11.378,0,0,0,3.461.549,5.612,5.612,0,0,0,3.977-1.215,4.839,4.839,0,0,0,1.281-3.678V27.064a7.264,7.264,0,0,1-5.657,2.229,9.493,9.493,0,0,1-4.51-1.082,8.239,8.239,0,0,1-3.245-3.045,8.511,8.511,0,0,1-1.2-4.526,8.515,8.515,0,0,1,1.2-4.526,8.247,8.247,0,0,1,3.245-3.045,9.5,9.5,0,0,1,4.51-1.082,7.107,7.107,0,0,1,5.924,2.563v-2.3h4.926v0Zm-6.44,11.565a4.124,4.124,0,0,0,1.315-3.179,4.126,4.126,0,0,0-1.315-3.178,4.781,4.781,0,0,0-3.378-1.214,4.842,4.842,0,0,0-3.395,1.214,4.1,4.1,0,0,0-1.331,3.178,4.1,4.1,0,0,0,1.331,3.179,4.843,4.843,0,0,0,3.395,1.215,4.781,4.781,0,0,0,3.377-1.215h0Z"/><path class="cls-2" d="M119.037,29.244a8.776,8.776,0,0,1-3.511-3.278,9.023,9.023,0,0,1-1.265-4.759,9.028,9.028,0,0,1,1.265-4.76,8.778,8.778,0,0,1,3.511-3.278,11.454,11.454,0,0,1,10.134,0,8.819,8.819,0,0,1,3.5,3.278,9.037,9.037,0,0,1,1.265,4.76,9.032,9.032,0,0,1-1.265,4.759,8.817,8.817,0,0,1-3.5,3.278A11.454,11.454,0,0,1,119.037,29.244Zm8.354-4.427a5.026,5.026,0,0,0,1.281-3.61,5.028,5.028,0,0,0-1.281-3.611,4.326,4.326,0,0,0-3.278-1.348,4.379,4.379,0,0,0-3.295,1.348,4.987,4.987,0,0,0-1.3,3.611,4.985,4.985,0,0,0,1.3,3.61,4.379,4.379,0,0,0,3.295,1.348A4.326,4.326,0,0,0,127.391,24.817Z"/></svg>